<svg width="320" height="400" viewBox="0 0 500 500" preserveAspectRatio="xMidYMid"><rect class="background" width="320" height="400"></rect><g><g class="states"><path d="M224.69800472716582,232.77249603066048L231.95440804556722,232.7286410460356L235.74294935042383,232.55511991013054L244.58733672607468,232.46152958422817L252.29910343785184,232.23014513756198L259.8732871207404,232.2816745614923L267.9997225667451,231.92846614152677L268.3688205161711,254.67837875518853L268.4231921422,262.2631902676171L268.7516007449469,269.84856420925007L269.2183246217463,271.1113333995868L269.7030291848346,285.1032227815472L270.1150361620313,295.2529897321915L270.478269095427,307.96222351778397L256.4875288075663,308.28215988145485L247.44572543782033,308.9990847572867L247.50928283525928,306.5011560079661L247.29366244761417,300.9341611198479L241.0224152532549,301.00156478735516L225.0416005769785,301.74395489115614L224.13323699375331,300.9153041144823L223.83238048764656,286.5042153924901L223.5471344762231,278.8713882886186L223.42807100487664,271.86248248398533L225.45936786744392,271.3761793807016L225.27153024844358,265.3291945706933L225.12122329356578,252.67878599446658Z" id="mn_undefined" style="fill: rgb(221, 221, 221); stroke-width: 1px; stroke: rgb(255, 255, 255);"></path><path d="M274.6299431956973,373.4468652861724L274.951210023678,383.53667719212945L275.37886336824636,398.7603779541205L262.51914123094394,399.0914247499077L262.811634113683,406.9052982686635L259.3135655498117,407.02221849852594L259.1411487060059,404.80493859626085L259.44950424302124,401.0473500333792L258.52521418733807,400.191708577383L257.73876874158566,397.7941374307975L255.11191497548515,396.14946923163916L254.33447046825762,394.9311528970875L253.14612333226268,394.50672294278047L250.8395587706692,392.808650598251L249.92026418220252,391.3408127292623L247.5505515470756,390.600753735906L246.30351102520916,390.59214586966664L244.61920579217133,388.8868038716564L244.37505202736662,374.04237184195335L251.87780227311288,373.9485987891853L265.7852222223208,373.49173133978684Z" id="mn_undefined" style="fill: rgb(242, 172, 147); stroke-width: 1px; stroke: rgb(255, 255, 255);"></path><path d="M79.07242024949561,223.7547548958787L86.73617768616965,223.71923300223625L98.67732248931807,223.84398871032863L108.79726772601441,223.8068111186476L117.73731702639306,223.67076575326791L132.996908680655,223.56466048641641L140.6919542016974,223.42115994563255L140.76461598490815,238.68530855762538L141.2483592389118,238.67249591197242L141.33437783412433,253.86864495880127L141.35390961817484,261.48835671276584L124.91870822588112,261.76233130604305L108.31708614157327,261.86535281844135L80.2120669525301,261.68323070052566L80.07531377229519,254.06639586372512L80.26348990727298,245.18601391366974L80.28027365474647,238.95821246518426L79.10057527060978,238.9568685587592Z" id="mn_undefined" style="fill: rgb(99, 99, 99); stroke-width: 1px; stroke: rgb(255, 255, 255);"></path><path d="M129.43779883229905,102.46685588314722L137.12333784795453,102.42529012114028L137.32357976390156,117.56190888524816L166.74587392699777,117.1724270654895L183.42749862151828,116.86210521454905L183.63934140776536,116.85751516242908L184.005056143326,132.11178003939813L184.23609636795476,147.13957720348662L184.59526283100269,147.12663705863906L184.78926045690673,162.30664130813466L184.89866729180403,171.15103696781443L185.30102019591416,183.6851534716102L185.45823794473748,184.92797201244366L185.51773576544852,197.30182453726047L185.57473772466392,200.19016079688936L170.3587370280384,200.5668795957513L167.80785639932222,200.6664230893066L149.85948979071782,200.71645883307156L139.67098393563887,200.7015181346328L139.35823393194113,177.92598711033952L138.80868344301194,177.9330234934664L138.7038351234322,160.5517777445266L135.59541070461108,159.6842028708652L134.36946310561027,158.33808496472557L133.66186769500342,155.91226512483036L133.86446620870427,153.195423522287L135.38444753476514,149.11556361236262L136.4863647064148,147.7077296618927L115.50589078593197,147.78561704739786L114.94607119597364,147.79261436266188L114.78616084704345,134.51618262859074L114.75332305636067,117.74343326156304L114.26453497017579,117.75279388867693L114.18724686925745,113.92336359252386L114.26329169896536,106.36301415098842L114.15771882574137,102.66195208970112Z" id="mn_undefined" style="fill: rgb(204, 204, 204); stroke-width: 1px; stroke: rgb(255, 255, 255);"></path><path d="M196.8223938503849,343.4498947084412L194.73255898044857,342.553331069852L191.75417190301386,339.37603278374127L215.26170664095707,338.7432396848103L227.89774344485028,338.63936735680863L228.70094785806856,361.7010333605376L222.32856442909656,361.79376093979363L212.1923604004159,362.1201501709138L204.6947615603388,362.2625689528586L203.69084662309652,361.10181851635843L203.31160623616495,359.60052936017155L202.04545892676396,358.7712816481021L201.25430556239786,357.0292950261505L201.19192841051608,354.55915607050883L201.6768650815896,352.3713165010163L200.7568441030596,349.8943163551362L199.97693466799558,349.2427787773472L200.30571301750388,347.65398858290837L199.05178252727202,347.3564756229398L197.62246289628465,346.28969536542036Z" id="mn_undefined" style="fill: rgb(242, 134, 112); stroke-width: 1px; stroke: rgb(255, 255, 255);"></path><path d="M39.3563242067279,360.77374519237446L61.900747766823855,360.991970473679L75.19894135784455,361.0265639663162L75.91263750580964,361.0233551199485L75.88263956036607,376.22131602509216L83.54933747781969,376.29636425984245L83.46640551050267,378.71680899854346L83.44827364094448,391.4326991916787L84.35198093848408,391.43357780096085L84.3468417499969,396.9972978891228L82.11812682390256,395.3242722999612L80.05716600540131,395.5694932294782L77.27535846074443,393.27712571311395L75.27843341603395,393.2461270501517L73.59590868001378,392.612314793766L73.23797262849186,390.795708850515L69.87280881262555,389.97414863855647L65.79213099288901,389.9144852916738L64.86426397157166,388.9311262916153L62.76163363098837,388.8177595370298L62.76391109353561,386.01850449069025L60.56838019539279,381.0567927569109L58.556806197556504,379.4126181738957L57.06648158500866,378.9289209388876L52.52824532416585,376.45336909042317L48.7838640317248,376.28576874426653L47.746838659516115,375.3102830511325L45.67221189050763,372.17202742691734L43.74151946887338,366.6191200788917L41.89097042074917,363.90377444279557Z" id="mn_undefined" style="fill: rgb(99, 99, 99); stroke-width: 1px; stroke: rgb(255, 255, 255);"></path><path d="M192.95489322653447,476.49172934745684L195.39485289015118,477.24749937030583L196.26969864966,478.27027169639996L197.4869020357974,478.3191449394594L200.53466360469008,480.68123642583123L202.39214356586723,481.1158776837119L202.9420287948515,481.8819137061005L207.52891488304033,482.4761686871757L208.53481667556684,483.5987172044338L211.2381118272992,485.30669070310205L213.70463683686606,485.11710739215323L216.3247338234213,484.1194907485642L215.48485662191464,481.32480836114564L215.58638616168895,478.25006202071927L230.89178356376277,477.9263925088949L231.0060312859036,481.750067647155L231.28945511614916,495.78835471981256L231.72813005075824,512.451923538888L201.45193074182794,513.0862610341787L193.7621340426572,513.2139351955934L193.37835092617541,490.2186796700162L193.2269571075376,482.5208115386454Z" id="mn_undefined" style="fill: rgb(204, 204, 204); stroke-width: 1px; stroke: rgb(255, 255, 255);"></path><path d="M167.08481617149556,459.9738907559986L168.17242242349784,461.11614178458103L169.0694669434122,460.52460244961867L170.49478919590393,461.8793013808372L172.4967499376313,462.46623692534286L172.95260400193874,464.0824823438461L175.96895768304432,465.0830416495155L179.3974905567506,466.9561042017431L180.78580490529697,466.82637286830004L181.9534251940629,467.83916295199197L185.30807585271202,468.8672483136784L187.21543819770267,470.57500175196765L187.857101148391,471.9738998783655L190.30623118195464,475.60441327673107L192.95489322653447,476.49172934745684L193.2269571075376,482.5208115386454L193.37835092617541,490.2186796700162L170.13286730011552,490.5522596023975L162.4995862432245,490.7284196028768L147.37018047950997,490.88379177842126L147.2544719064124,483.2128301595221L146.77100855409645,483.20903983241715L146.76878328819566,475.5668353084734L161.9049111020238,475.363081533686L161.7198770338688,456.3427483170167L165.11590270645206,457.76867170600144L165.216754976392,458.6420119643167Z" id="mn_undefined" style="fill: rgb(99, 99, 99); stroke-width: 1px; stroke: rgb(255, 255, 255);"></path><path d="M268.3688205161711,254.67837875518853L283.6602130629219,254.23252612088163L291.3885143151279,253.7003319297196L293.9229893623419,253.80038491631103L314.2863440565487,253.28407551558166L314.66150887943485,262.09461270931797L315.1983357878292,262.09957241711436L315.33474466880324,264.6499357487537L315.99814033496847,283.63112930546913L284.99244427209635,284.6669378247234L269.7030291848346,285.1032227815472L269.2183246217463,271.1113333995868L268.7516007449469,269.84856420925007L268.4231921422,262.2631902676171Z" id="mn_undefined" style="fill: rgb(242, 134, 112); stroke-width: 1px; stroke: rgb(255, 255, 255);"></path><path d="M229.41147173341443,412.8856336831832L229.56435459573254,420.5248062857154L244.92486011613596,420.0949442932474L245.14337158562677,427.7473624983186L243.83883824757265,427.7607443316442L241.53305440090037,428.7374867605686L241.36864140698827,429.791078742609L239.26227306589755,431.2628206115619L238.3893170649011,433.74292139067256L239.24354033602572,436.40972074609044L237.89045405880336,437.76326212070444L236.18826899649906,437.60427114141567L233.31081262570456,441.01364542712236L231.88797615698638,442.05956711206363L230.04575414907225,442.5965396479919L229.99496238292005,439.6612913315871L222.462358357683,439.8479603691726L222.38684773347637,435.9942862438661L214.7957236066626,436.13862906643317L214.50630269724724,420.786672152286L214.20442734111475,413.1526890553291Z" id="mn_undefined" style="fill: rgb(99, 99, 99); stroke-width: 1px; stroke: rgb(255, 255, 255);"></path><path d="M170.3587370280384,200.5668795957513L185.57473772466392,200.19016079688936L185.51773576544852,197.30182453726047L186.85217121754428,198.7793001057371L189.26639422022498,199.01216312632596L190.86301317502773,199.74880959175698L203.28979988128992,193.84550122148994L205.58833668371756,194.87121733805225L206.74295821951424,197.4967224599377L208.67036525682494,199.75604953398715L208.04426846804597,200.5665011149863L207.96788483121796,202.66135688352824L208.95851647991228,205.00564242536893L212.18607933953848,206.15851482416838L213.4226044132943,207.88192745283095L214.68808162435602,208.90952332635425L216.58187433017622,209.16995902900499L217.27383789989887,207.91245178095733L219.32173335495418,208.06235654812372L222.16309974012864,208.770282127055L224.29159864140917,208.88724439629914L223.6967795201158,210.01194737126798L223.6916607810391,212.6901486764441L222.43302617357386,213.68296199678161L222.7851617335263,216.1214347164405L224.3960489445899,216.9611981836165L224.69800472716582,232.77249603066048L225.12122329356578,252.67878599446658L212.33623119599153,252.88644605168338L205.99682663115914,253.06131264481382L202.26947558881903,253.0098079278373L190.90049668649792,253.15557018235813L190.86476132589377,263.3017267160203L190.9981087691602,268.39970311129036L191.86445651254536,268.3830248426284L192.1270841768571,277.35709170552855L192.61774906584975,298.3216524614595L191.76675587231398,299.3842334018841L191.18912153313875,297.8490183454337L189.956379650032,297.7158889755274L188.1318657286445,295.7446699431289L185.49685421986834,294.74659243434235L183.05952039795312,296.18484360217144L179.9665533604588,297.3845700851607L178.65453134205035,297.0243464349169L176.84410326375345,295.5391917693023L174.41835514794823,295.04639386650297L172.69313613694453,293.4782459115813L171.98579403622063,293.15574431365985L168.48131521173826,293.2417949125461L167.90175953121457,291.784392517523L168.09522530769013,290.6758129191753L166.23173081583667,290.58884048251366L165.00003919812826,289.59150627099325L164.88834713221337,280.3876295788996L164.6399504413368,268.8989508696004L164.30918337339466,268.90224237908706L164.044287093575,253.684506774468L171.72483071992923,253.60200036225524L171.60313615031265,238.4433880965762L171.28693970314126,238.44537529053105L170.86116488147485,208.19174823310004L170.38404160660124,208.20846962900578Z" id="mn_undefined" style="fill: rgb(204, 204, 204); stroke-width: 1px; stroke: rgb(255, 255, 255);"></path><path d="M137.4384478658952,398.952821517194L137.49401450224673,421.9313689035507L122.89429589810112,422.08726439302836L122.99960711727562,434.1971919075031L122.56802026860221,433.24308197958953L120.36888881909267,431.5483944608691L122.00378358598206,431.2367438160254L119.67729384538251,429.0447987729517L118.1404258601962,428.0429193797836L117.76311925249955,427.0856715252012L114.83284359724199,425.7061281450683L114.74192512706941,424.86216530638467L113.08668766569384,423.5825734621658L111.14148192924799,420.9695593279257L108.2881629340735,420.80201240022234L108.17753187920006,419.42000114866505L107.13762352755764,418.17201532220497L102.95231173687827,417.02629622508084L101.74589427648026,415.64460710634285L101.5629620228578,413.3740308188826L99.37523185681668,411.9154202285654L98.84623597191066,410.4199867331172L97.29695910169168,409.33700884551627L91.98911744520642,403.9696163472663L90.74869250033777,402.02552612236923L89.99550850677646,401.6626254043972L88.49526099608187,399.16314743856583L115.93460896456028,399.1916834002318L131.07927823689775,398.970221552509Z" id="mn_undefined" style="fill: rgb(221, 221, 221); stroke-width: 1px; stroke: rgb(255, 255, 255);"></path><path d="M284.71799065872193,345.1212464005889L283.0193602237793,346.2789758414174L282.1144853215279,354.150193073493L282.510161469549,355.73408952172394L282.5351616412711,358.78760886064765L283.26627744118656,359.42051137029375L286.2959065137258,359.94249742038164L289.34414697718523,359.1977516405864L292.3379538468301,361.48078806256217L292.38202440498446,363.82329591187545L293.2617267558478,364.63858440014064L295.39527432799525,368.1275140876187L297.12220623315335,368.93058786422944L297.53790709924806,370.0501573275819L297.44363371925715,373.8253390628229L296.60841641950645,374.33496641768124L295.79798866798893,376.0972312306417L294.265059822326,377.90568301815983L294.6318398684021,379.41412002145034L293.99859288793664,380.76255002918697L291.8858763678656,383.04403765759935L274.951210023678,383.53667719212945L274.6299431956973,373.4468652861724L274.1622784957595,364.48363068148774L274.083079735035,360.65947559463393L266.69951533541206,360.8248627386274L266.2349454130487,345.6596574362152Z" id="mn_undefined" style="fill: rgb(221, 221, 221); stroke-width: 1px; stroke: rgb(255, 255, 255);"></path><path d="M40.275931479213334,223.5948586757504L64.54842292535366,223.70869972445098L79.07242024949561,223.7547548958787L79.10057527060978,238.9568685587592L80.28027365474647,238.95821246518426L80.26348990727298,245.18601391366974L80.07531377229519,254.06639586372512L80.2120669525301,261.68323070052566L80.31897582464379,269.3194762128842L73.73561487576174,269.2970882508139L60.05596633904278,269.25849136768284L43.241938644866956,269.16920732812696L42.383848701620934,267.07715040090534L42.389956937651476,264.959195122055L43.089240866256915,264.9672527777934L43.02283199118357,262.1863482496519L43.52037489484151,261.1319106271917L43.25420147299625,257.00595591375577L42.768365788644346,255.30074139121962L42.574009867207856,252.3386361687676L43.35485176909865,251.40828041996565L44.46555084350955,246.9872872139822L44.10563918010933,245.24230521310892L44.92236659590364,244.19849056376506L44.83928219206715,242.525961141655L43.025946300907115,243.05376077286337L41.366309921604206,238.76040151508732L41.17412895690682,236.70007741843665L40.48882171960486,236.13634396224325L41.32911750036097,234.10008051584828L41.547640698361604,232.30665715928717L41.19185092300077,230.14851935868L41.71664961179604,227.62442401570343L41.066224727672235,226.02769947624756L40.94174104890502,224.06655690287016Z" id="mn_undefined" style="fill: rgb(99, 99, 99); stroke-width: 1px; stroke: rgb(255, 255, 255);"></path><path d="M139.67098393563887,200.7015181346328L139.75071152568643,208.3084962177295L140.5426572461194,208.30689254959134L140.6919542016974,223.42115994563255L132.996908680655,223.56466048641641L117.73731702639306,223.67076575326791L117.6687297550246,217.33955098440492L117.67022806628289,198.46243654703176L117.5847752328235,193.20627843182228L117.42739327273188,191.9440695206431L117.38390239856156,178.05028883055138L115.89027421605337,178.0603720133222L115.78204804619153,167.96335206265576L115.56307545423743,155.3570320933518L115.50589078593197,147.78561704739786L136.4863647064148,147.7077296618927L135.38444753476514,149.11556361236262L133.86446620870427,153.195423522287L133.66186769500342,155.91226512483036L134.36946310561027,158.33808496472557L135.59541070461108,159.6842028708652L138.7038351234322,160.5517777445266L138.80868344301194,177.9330234934664L139.35823393194113,177.92598711033952Z" id="mn_undefined" style="fill: rgb(221, 221, 221); stroke-width: 1px; stroke: rgb(255, 255, 255);"></path><path d="M388.28356217093585,188.5422400503585L387.2244188944052,166.67454014408486L386.4859800472856,151.64789346443104L386.1387405805683,151.6539597135411L385.4728238474949,136.36224390070674L385.05333626388824,136.36334937549054L384.5048312631558,125.50624726089427L387.55997994717194,122.6644526481432L390.4975710885293,121.61515920502097L392.8212154689907,120.080831928326L393.9678292415252,120.69352035397878L395.592652495645,120.48866387349881L396.303719427954,126.21253688244269L397.9643618925904,125.74576353690645L398.2314625070152,127.00871413182995L399.6889570971497,127.04119235821054L398.5803897703065,129.06645486421166L399.8569935566879,130.33887338414206L400.86626813325904,132.51856669456947L402.06426578080027,132.78572502829047L407.9316627538028,131.67621356096652L408.7447767199519,130.90990370087866L411.73325275236743,129.96701084031793L412.9829519057811,132.05106253316262L417.10667213484953,131.54056082297257L418.1988445033754,130.6309901634504L419.9609186770876,131.40684985029793L422.0147737532224,130.7257543089204L423.7657922115742,131.85689419822438L425.452125410841,131.49360252306133L427.77015882853243,130.37919072018985L428.7800060483616,130.84965775110322L432.5196345343682,129.82580386203335L437.97465019433474,129.19374970622766L438.9948811515137,129.78619134642804L440.43356757261614,129.65875907319332L444.5775021169982,131.13368231925097L446.51597818759865,134.10711122133944L446.6338896940552,135.95258559323656L450.68549370572885,137.90734934936518L452.4795527204336,139.07801473851669L454.1175124606469,139.16422485841076L456.40978167830673,137.81444357842065L456.94864000645777,136.4434284352501L460.04976956618856,135.55925090956543L462.62640531417014,135.70058409625926L464.00084512508556,136.72569219488514L464.82051363235666,136.27441655304938L468.36612628323456,136.01222286581879L470.9456712717837,136.66198017357738L472.1876823353755,137.3776614161652L470.8261400800671,138.51982740503126L469.1038181544985,137.26293501592681L467.2874010796207,138.93548211483358L466.7692566432293,139.9667469635683L465.0803470045213,140.94020536844118L464.7628451544885,142.30893828539956L462.4464019177938,144.6207055431837L459.23776328529743,147.10011910377307L451.38039814887793,150.36559189748914L451.5255552242847,151.11819724643874L448.60876357459426,153.1830636184718L445.80803717759494,154.4196182786004L443.2321598969794,155.0919356545851L442.6221179057665,155.90342308807067L440.5613992407048,156.71476576784107L437.75001465717264,157.15022349077844L436.50005278891325,158.53407718982544L433.88662670444404,158.77157936099366L427.33694633494065,161.8879153288717L424.62457181904136,162.41292498596385L421.91328560799496,163.35891230300786L421.3019230185837,164.20162107171882L419.1146819610979,164.81496422328337L415.82165198749163,166.5342950879035L415.324468509011,167.36721938705887L413.6822235830244,168.12924067444192L404.7811506214701,173.59241916291649L402.2692114855207,175.48382205894904L401.5439189383395,176.43109190946052L395.8357803787864,181.18555457092953L393.5725864797678,183.70183584359984L391.95750413589815,184.92367795081418Z" id="mn_undefined" style="fill: rgb(221, 221, 221); stroke-width: 1px; stroke: rgb(255, 255, 255);"></path><path d="M124.53967047276402,483.30731222273835L146.77100855409645,483.20903983241715L147.2544719064124,483.2128301595221L147.37018047950997,490.88379177842126L162.4995862432245,490.7284196028768L162.62280909805247,497.10678818894075L162.80196270884295,513.6569891324962L142.8325042442704,513.8942706179573L125.34579311716925,514.0034946625469L124.7182044020627,514.0076941908128Z" id="mn_undefined" style="fill: rgb(99, 99, 99); stroke-width: 1px; stroke: rgb(255, 255, 255);"></path><path d="M191.76675587231398,299.3842334018841L192.61774906584975,298.3216524614595L192.1270841768571,277.35709170552855L191.86445651254536,268.3830248426284L190.9981087691602,268.39970311129036L190.86476132589377,263.3017267160203L190.90049668649792,253.15557018235813L202.26947558881903,253.0098079278373L205.99682663115914,253.06131264481382L212.33623119599153,252.88644605168338L225.12122329356578,252.67878599446658L225.27153024844358,265.3291945706933L225.45936786744392,271.3761793807016L223.42807100487664,271.86248248398533L223.5471344762231,278.8713882886186L223.83238048764656,286.5042153924901L224.13323699375331,300.9153041144823L225.0416005769785,301.74395489115614L224.14778324580635,301.7731325773516L224.3519627573018,309.35980352080605L203.90653642591784,309.8532980915402L196.25867542422552,309.86639873671766L189.92322892017552,310.0055381160546L190.37954562847162,308.2548249384681L188.59234527166757,305.1935368072168L188.6470624770664,303.69396607791805L191.76997189144282,300.15146952267696Z" id="mn_undefined" style="fill: rgb(99, 99, 99); stroke-width: 1px; stroke: rgb(255, 255, 255);"></path><path d="M276.074974331416,419.26788428421787L276.84193658465836,422.37587035596744L276.7032663261982,423.9044365405589L277.18621458020345,425.7924103268765L276.2310630336709,427.7080816862458L276.6585429201906,429.42630410850734L278.8290215996327,429.4450317808446L280.4917945055983,430.03361860157383L281.95872402140105,428.72414254932346L283.0831184225632,429.2770137792709L285.19376765043467,429.35357069810834L287.0229937002468,431.61198451613063L288.5797092209961,431.20708506551955L289.9943836627466,431.5913125088691L294.45876608514527,434.2589105395823L294.7165335009437,441.6784301291864L290.9507603909798,441.78695606917245L291.2042810054277,449.3986933241754L283.3117258156059,449.6549869416308L283.37675899244056,451.7815464822511L281.35337910475647,452.8215349722732L279.20869406971974,451.91109633515134L275.87388441114524,452.3261422746996L275.9886320991001,456.189098340446L269.6408721434459,456.4422468017683L260.8266685785491,456.6311318230896L260.6698707646628,450.286916353813L260.65466004250317,442.6361824411347L258.1260340943628,442.72456731092916L257.93932591991376,435.0699345272815L257.32548528235435,435.086247053599L257.0465465072648,428.6262732979535L258.3707368139286,428.3910228709492L259.9139391169742,427.23691553008166L261.70533860921313,426.7184302758974L263.6578347752195,424.26520600745016L264.47251567014047,423.8096218743999L264.9127986668152,421.849691736184L266.22036909202416,419.77602243065667L267.7668503724694,419.27178448101085L269.19584453183506,416.9472840807225L273.9712096343719,416.79346918640795L274.6470241625745,418.0573273666173Z" id="mn_undefined" style="fill: rgb(221, 221, 221); stroke-width: 1px; stroke: rgb(255, 255, 255);"></path><path d="M276.62945009668476,480.439764479102L290.55797221057963,479.98224086530854L299.39581742280933,479.7887299505828L300.1561526579261,500.18543034507456L300.48133570798103,510.38153615188685L299.7888296703356,510.4065904872323L277.3102931134165,511.16371760504126L276.3300359382276,480.4488701323071Z" id="mn_undefined" style="fill: rgb(194, 42, 34); stroke-width: 1px; stroke: rgb(255, 255, 255);"></path><path d="M142.92091070010764,315.0362170794633L143.0319147691095,330.3000620786743L143.48434289544542,330.29573587722643L143.43682479495675,335.4007171292674L143.55734436173574,344.29825923129874L143.57520001161657,345.5694245522236L120.84207017119678,345.7309637641274L105.5903108498425,345.70894664054276L105.53860631786759,330.4445105393429L104.87604092697883,330.4454469373918L104.82627871456532,315.1876227575053L121.2453511936195,315.0738157983583Z" id="mn_undefined" style="fill: rgb(99, 99, 99); stroke-width: 1px; stroke: rgb(255, 255, 255);"></path><path d="M201.45193074182794,513.0862610341787L231.72813005075824,512.451923538888L239.28372734134706,512.2630828916458L240.00178726163296,543.012256721041L227.31586138376855,543.3138250389015L201.97035959470077,543.7757856885651L201.5674788029878,522.0710386819651Z" id="mn_undefined" style="fill: rgb(150, 150, 150); stroke-width: 1px; stroke: rgb(255, 255, 255);"></path><path d="M360.3023985323777,508.14644406294474L361.67950846288113,538.6778812565371L347.77437754164663,539.2972966975212L316.1029806143016,540.5753166511768L315.45004254117276,523.9476197021877L315.00812632697784,511.13067711407894L314.96815359464097,509.8837318638266L330.7654594711668,509.3778091448894L338.29730931481123,509.06314681297135Z" id="mn_undefined" style="fill: rgb(242, 172, 147); stroke-width: 1px; stroke: rgb(255, 255, 255);"></path><path d="M254.51455879751842,511.8576371537706L277.0550712165023,511.1716014744334L277.4823842941477,524.0170052456656L278.0221060456969,541.9444040103067L264.08950086736564,542.3765032379847L240.00178726163296,543.012256721041L239.28372734134706,512.2630828916458Z" id="mn_undefined" style="fill: rgb(242, 134, 112); stroke-width: 1px; stroke: rgb(255, 255, 255);"></path><path d="M275.9886320991001,456.189098340446L275.87388441114524,452.3261422746996L279.20869406971974,451.91109633515134L281.35337910475647,452.8215349722732L283.37675899244056,451.7815464822511L283.3117258156059,449.6549869416308L291.2042810054277,449.3986933241754L290.9507603909798,441.78695606917245L294.7165335009437,441.6784301291864L294.45876608514527,434.2589105395823L296.47264237795605,435.95083940455424L298.82578951263343,438.54594275906675L300.9029179427487,439.73799082672394L301.58129908929425,440.59939942813116L301.6147677929989,442.61206212687966L304.2061064655062,443.8698470733584L304.9562016818873,443.6034380284441L306.7843887241834,446.76235616813574L308.2351745949578,445.98442885963686L309.79755930690555,446.73116931447385L312.22791313527085,447.0093244840855L313.6251085777904,446.6202526569273L316.2110066031936,447.2335383157356L318.95893373526553,447.1720987710114L320.89531494487994,448.38818134104713L321.91458239720816,450.6438794767596L322.23844386952334,452.55986418274415L323.30426038923184,454.01015923001614L325.9088790774093,455.9791053798517L314.1336608238924,456.3280285806368L314.4071253476401,464.01028281499157L306.8765217060438,464.2618333718219L307.42078746343316,479.56366787450224L299.39581742280933,479.7887299505828L290.55797221057963,479.98224086530854L276.62945009668476,480.439764479102Z" id="mn_undefined" style="fill: rgb(242, 134, 112); stroke-width: 1px; stroke: rgb(255, 255, 255);"></path><path d="M104.82627871456532,315.1876227575053L104.87604092697883,330.4454469373918L105.53860631786759,330.4445105393429L105.5903108498425,345.70894664054276L90.41067360054885,345.76690233986255L75.17619991579197,345.7112576428208L75.20846407072601,330.3596632442791L74.47246950350288,330.35847976211926L74.49299102307826,322.71100443395744L74.56496922585221,315.0808794422401L95.93337965480724,315.12711544968624Z" id="mn_undefined" style="fill: rgb(204, 204, 204); stroke-width: 1px; stroke: rgb(255, 255, 255);"></path><path d="M244.07740756815696,388.8279988228969L244.61920579217133,388.8868038716564L246.30351102520916,390.59214586966664L247.5505515470756,390.600753735906L249.92026418220252,391.3408127292623L250.8395587706692,392.808650598251L253.14612333226268,394.50672294278047L254.33447046825762,394.9311528970875L255.11191497548515,396.14946923163916L257.73876874158566,397.7941374307975L258.52521418733807,400.191708577383L259.44950424302124,401.0473500333792L259.1411487060059,404.80493859626085L259.3135655498117,407.02221849852594L262.811634113683,406.9052982686635L263.97185825084875,406.85787952968985L264.2198204638137,414.1449527812174L264.6105083560693,414.5473303368717L264.6863824797587,417.6545655146033L266.22036909202416,419.77602243065667L264.9127986668152,421.849691736184L264.47251567014047,423.8096218743999L263.6578347752195,424.26520600745016L261.70533860921313,426.7184302758974L259.9139391169742,427.23691553008166L258.3707368139286,428.3910228709492L257.0465465072648,428.6262732979535L253.85660614097242,429.1604176966116L253.59312625475508,428.189673816747L250.23224390858604,426.9156516208818L249.90104064908854,427.5677206065279L245.14337158562677,427.7473624983186L244.92486011613596,420.0949442932474L229.56435459573254,420.5248062857154L229.41147173341443,412.8856336831832L229.27641405427113,405.61947024652L229.85381639185255,403.84100266877886L231.0083854069037,403.7577941834993L232.05757961524853,400.7816336280407L234.20979298858822,397.6033684083327L235.62455428398914,397.2719094727363L236.9886110572001,396.15964676735894L235.67163309842908,393.73389156601525L236.81101091421112,392.3197920905359L238.24485702428302,392.2759181769229L241.14417032433886,391.41352751123986L242.7788539089982,390.12978039675636L243.8687620163708,390.650929119116Z" id="mn_undefined" style="fill: rgb(221, 221, 221); stroke-width: 1px; stroke: rgb(255, 255, 255);"></path><path d="M360.3023985323777,508.14644406294474L388.4514111027028,506.79070488381694L390.06592087897496,511.56716609792466L391.29841862890885,513.0522315550816L390.79026626810077,516.8496113064052L390.0477237961215,518.8461894348738L390.08053900652965,523.6972809926156L390.6117907022071,524.3132356458818L390.44432234343657,527.1784884535045L392.8660672253742,529.870339823422L392.9421442749337,531.5191652910235L392.31435542975817,532.9400153179263L393.1149667460858,535.1249234308048L394.15386457247604,536.0890908108136L394.18394083437005,537.1348531025774L379.3470776692097,537.8656636020514L361.67950846288113,538.6778812565371Z" id="mn_undefined" style="fill: rgb(204, 204, 204); stroke-width: 1px; stroke: rgb(255, 255, 255);"></path><path d="M139.67098393563887,200.7015181346328L149.85948979071782,200.71645883307156L167.80785639932222,200.6664230893066L170.3587370280384,200.5668795957513L170.38404160660124,208.20846962900578L170.86116488147485,208.19174823310004L171.28693970314126,238.44537529053105L171.60313615031265,238.4433880965762L171.72483071992923,253.60200036225524L164.044287093575,253.684506774468L148.90729871826449,253.7207905746527L141.33437783412433,253.86864495880127L141.2483592389118,238.67249591197242L140.76461598490815,238.68530855762538L140.6919542016974,223.42115994563255L140.5426572461194,208.30689254959134L139.75071152568643,208.3084962177295Z" id="mn_undefined" style="fill: rgb(99, 99, 99); stroke-width: 1px; stroke: rgb(255, 255, 255);"></path><path d="M266.2349454130487,345.6596574362152L266.69951533541206,360.8248627386274L274.083079735035,360.65947559463393L274.1622784957595,364.48363068148774L274.6299431956973,373.4468652861724L265.7852222223208,373.49173133978684L251.87780227311288,373.9485987891853L244.37505202736662,374.04237184195335L244.00470679586851,361.3967959470642L243.42057404964766,345.9746568919172L251.07328136105224,346.09009486467676Z" id="mn_undefined" style="fill: rgb(204, 204, 204); stroke-width: 1px; stroke: rgb(255, 255, 255);"></path><path d="M184.78926045690673,162.30664130813466L199.81773786517186,162.01693677618505L207.4352000563647,161.7238464999482L222.97603765990692,161.49479269715857L222.8898555957186,156.8976737417538L225.91447805385206,156.96990078710223L236.10957916911582,156.72411228587725L242.591233861107,156.79818667205245L264.17931687268424,156.38336027058722L264.195026592478,162.48208501429144L264.5601414489795,171.35506209975256L265.7980987630056,171.3233725890259L265.902898825927,180.3408376432435L266.02750896973464,181.61497810177207L266.16786556240163,190.54896843026427L266.06105338585337,194.26665532761808L266.2488253357931,200.53777160876461L266.5551825203843,201.7887432102748L266.67227271581964,208.26054850885384L267.02395808813276,218.40274368728842L267.1460658122312,224.70608405955136L267.760850688218,224.6881730852515L267.9997225667451,231.92846614152677L259.8732871207404,232.2816745614923L252.29910343785184,232.23014513756198L244.58733672607468,232.46152958422817L235.74294935042383,232.55511991013054L231.95440804556722,232.7286410460356L224.69800472716582,232.77249603066048L224.3960489445899,216.9611981836165L222.7851617335263,216.1214347164405L222.43302617357386,213.68296199678161L223.6916607810391,212.6901486764441L223.6967795201158,210.01194737126798L224.29159864140917,208.88724439629914L222.16309974012864,208.770282127055L219.32173335495418,208.06235654812372L217.27383789989887,207.91245178095733L216.58187433017622,209.16995902900499L214.68808162435602,208.90952332635425L213.4226044132943,207.88192745283095L212.18607933953848,206.15851482416838L208.95851647991228,205.00564242536893L207.96788483121796,202.66135688352824L208.04426846804597,200.5665011149863L208.67036525682494,199.75604953398715L206.74295821951424,197.4967224599377L205.58833668371756,194.87121733805225L203.28979988128992,193.84550122148994L190.86301317502773,199.74880959175698L189.26639422022498,199.01216312632596L186.85217121754428,198.7793001057371L185.51773576544852,197.30182453726047L185.45823794473748,184.92797201244366L185.30102019591416,183.6851534716102L184.89866729180403,171.15103696781443Z" id="mn_undefined" style="fill: rgb(99, 99, 99); stroke-width: 1px; stroke: rgb(255, 255, 255);"></path><path d="M125.34579311716925,514.0034946625469L142.8325042442704,513.8942706179573L162.80196270884295,513.6569891324962L163.1137787762279,513.6514092551051L163.47534210629044,544.307584657498L145.67742208148348,544.4759926266793L129.62295300629455,544.6827099060329L125.39813520048295,544.6693799937711L125.34845094731125,534.4939135500827L125.41713810309501,521.6851469359963Z" id="mn_undefined" style="fill: rgb(242, 172, 147); stroke-width: 1px; stroke: rgb(255, 255, 255);"></path><path d="M270.478269095427,307.96222351778397L270.8880204977581,323.50110199359733L265.528098156837,323.6851396328166L266.2349454130487,345.6596574362152L251.07328136105224,346.09009486467676L243.42057404964766,345.9746568919172L242.80443938568715,333.25363103432346L242.57668975027264,324.26351837410084L247.81420367813774,324.1457916375093L247.44572543782033,308.9990847572867L256.4875288075663,308.28215988145485Z" id="mn_undefined" style="fill: rgb(242, 134, 112); stroke-width: 1px; stroke: rgb(255, 255, 255);"></path><path d="M144.3313524758085,376.00853138684533L151.9207554770235,375.9612869072398L167.09153959893763,375.73272895063974L167.1798869292188,383.35895550152645L167.2617721154229,391.01726559220197L167.62755147887478,391.01046486087535L167.85838039528232,406.20822656246446L167.99092681969933,421.5496084038691L150.22955729548096,421.8036822598242L137.49401450224673,421.9313689035507L137.4384478658952,398.952821517194L137.37522429231421,391.3641091837003L136.84247450398428,391.3644191467556L136.72886582228404,376.0580887832489Z" id="mn_undefined" style="fill: rgb(221, 221, 221); stroke-width: 1px; stroke: rgb(255, 255, 255);"></path><path d="M67.08816555559964,62.57830149554684L67.0801512893036,80.80245292300515L67.01399537580525,87.16151968242411L68.04753720182612,87.16532053591982L67.89784928576601,97.14588264851409L67.93529194796838,102.20604144574463L61.51621514089734,102.24579908532905L37.154570951481475,102.0788998039443L22.354741202194944,101.85203291813741L22.14277183314786,100.67231651057318L23.58920687114903,98.40530379280517L23.59832458198143,97.1101192834667L25.663590899859187,94.17452402205436L26.26223149467684,91.86897435433184L26.144526411875532,89.99716747593538L24.08754059398474,86.02211704862475L24.05142978919136,83.95454234446424L22.90726461848398,81.60194511754798L22.79119658319881,79.06985910740514L21.534628758263267,78.25180565778282L22.066407725106785,75.00626459296473L21.790306651502533,73.18967586342114L20.56440658991059,72.46089083885636L21.164662015813818,71.28444484198008L19.97330198043103,69.54811557788071L18.625696441079043,66.6447231405109L18.449432293036082,63.54523499696279L18.96583439193762,62.131249644836316L44.11647646213898,62.42292271405313Z" id="mn_undefined" style="fill: rgb(99, 99, 99); stroke-width: 1px; stroke: rgb(255, 255, 255);"></path><path d="M182.88259652126425,87.83855744217999L183.69749873238231,86.9703645821728L185.27186892504727,86.85942285936108L187.97292566266788,87.55551103491507L189.97550154711007,86.92326096168108L192.7965139205834,88.06149189760436L193.38374520154733,89.17970909647374L193.21538005289892,90.89111039943327L193.8381457522226,91.79330018829205L202.85228390131675,92.47358536680258L204.33815184754644,92.22687657840106L206.48011549350116,92.64125834821243L207.80197462564587,92.40498842994839L210.9866680789145,93.134251476401L217.1573900276228,93.28981668887354L218.7634509086531,95.13104125480186L219.85613117424788,98.49436337980205L219.09117266669136,101.88788278484753L220.5992284306373,103.16719356233716L225.44854910071172,102.857369933271L226.5033817076913,103.12394736837723L229.18782011272702,102.8428712537825L230.43067599273826,101.61369759268928L231.23964304147142,102.37985932236279L235.32531797254762,101.61594316983246L237.73471382212688,100.56572357431924L239.70522387609282,100.06770339821651L240.23578671566162,98.25394855268496L239.62031266028936,96.41938825909801L241.213805315078,95.9173537595916L243.31059109449455,94.44340255361112L245.2019900077285,94.74970465194474L246.15044102274294,94.24106758681592L246.490670421682,92.92177123234524L251.9697363737659,91.34298421123549L254.7367003092466,91.28939453131352L256.49828099300413,92.93350550633932L261.7637030251857,92.36604230368812L262.1063702457811,110.90000345214594L262.24633507825916,125.8864290171141L262.77783894440375,141.1111724898219L263.2125125153496,141.08703194913915L263.5228372950671,148.85942541308032L263.94333971064646,148.85001017816376L264.17931687268424,156.38336027058722L242.591233861107,156.79818667205245L236.10957916911582,156.72411228587725L225.91447805385206,156.96990078710223L222.8898555957186,156.8976737417538L222.97603765990692,161.49479269715857L207.4352000563647,161.7238464999482L199.81773786517186,162.01693677618505L184.78926045690673,162.30664130813466L184.59526283100269,147.12663705863906L184.23609636795476,147.13957720348662L184.005056143326,132.11178003939813L183.63934140776536,116.85751516242908L183.42749862151828,116.86210521454905L183.1303824433156,104.29050770583763L183.0890703878308,96.73628327281949Z" id="mn_undefined" style="fill: rgb(204, 204, 204); stroke-width: 1px; stroke: rgb(255, 255, 255);"></path><path d="M84.3468417499969,396.9972978891228L87.28240105213843,398.7805618455991L88.49526099608187,399.16314743856583L89.99550850677646,401.6626254043972L90.74869250033777,402.02552612236923L91.98911744520642,403.9696163472663L97.29695910169168,409.33700884551627L98.84623597191066,410.4199867331172L99.37523185681668,411.9154202285654L101.5629620228578,413.3740308188826L101.74589427648026,415.64460710634285L102.95231173687827,417.02629622508084L107.13762352755764,418.17201532220497L107.11818698646806,422.08325279908195L100.25517326123475,422.0695967717579L100.18177344844611,429.66961461176516L84.9584343816421,429.7375336410323L77.35218549272693,429.65936505484797L62.641026880401924,429.6222774343928L62.68059263685414,415.772223163493L62.76163363098837,388.8177595370298L64.86426397157166,388.9311262916153L65.79213099288901,389.9144852916738L69.87280881262555,389.97414863855647L73.23797262849186,390.795708850515L73.59590868001378,392.612314793766L75.27843341603395,393.2461270501517L77.27535846074443,393.27712571311395L80.05716600540131,395.5694932294782L82.11812682390256,395.3242722999612Z" id="mn_undefined" style="fill: rgb(221, 221, 221); stroke-width: 1px; stroke: rgb(255, 255, 255);"></path><path d="M384.5048312631558,125.50624726089427L385.05333626388824,136.36334937549054L385.4728238474949,136.36224390070674L386.1387405805683,151.6539597135411L386.4859800472856,151.64789346443104L387.2244188944052,166.67454014408486L388.28356217093585,188.5422400503585L387.01797362035455,189.27956980110184L384.0913760445768,193.23559561909133L382.28358026260634,194.60208166670054L379.71015988745114,198.13543789209916L377.7297770679793,201.781672837732L376.0532991572651,203.245008958168L375.7561483651237,204.75173262044382L373.43016702021055,206.61330968036827L369.66745839824694,211.20017080084244L369.5319648903238,212.0685178178578L368.07990405704084,213.5141963635583L366.4570703119017,214.4806972522715L362.36453077201213,219.66234045156534L360.84127815753544,220.19639657003927L360.067710427894,221.49257612845759L356.83887964417437,223.02729968884069L355.59180131397875,225.426118847417L354.64310090981434,225.74125365920463L350.56276989028237,230.51659117563213L349.6943767019038,230.49670316855145L347.45477374591724,232.80905061210797L344.96011323298046,236.19525900259714L344.23443713235685,236.66081356094264L344.07512669101527,232.98250218964768L343.9122402703915,229.16465624353077L343.8546331925059,227.90540870212453L343.7343495391744,225.37544564985183L343.6225582282073,222.86440060197447L343.7022112189649,221.60771223507209L343.58145141035277,219.05884491289953L343.3079410058498,212.78833687832048L343.09435736947836,207.70827556864106L343.0430101585653,206.43816683653677L342.8884085536512,202.65895428663998L342.70533883361617,198.83275439630734L342.73769025704536,196.28697544452098L342.63784452679477,193.78810619539763L342.5160694354398,191.1580872723489L342.4096698822893,188.70080363882016L342.3716692071351,187.3488091889003L342.33125058155133,186.17385684927604L342.29239004454917,184.8967258874386L342.2844319457771,183.94597824208995L342.1680446639565,182.34785732974524L341.97430768467126,180.16737854670464L341.93294837269485,179.8238877030317L341.8483845556679,178.56194226201615L341.7711776612985,177.6399327256081L341.6151884905874,175.98800383216167L341.53223962028176,175.082276228924L341.3396436012976,172.64216559010038L341.1529313050548,170.06678617846956L341.01293722251035,168.84759482849358L341.0077399255678,168.8011029364243L340.8199678196851,166.08364253955415L340.7834861644784,165.07225314948937L340.70868204123155,163.8170408349897L340.70003809971365,163.6633635193498L340.64251933158664,162.56165136138407L340.6280750850667,162.30532621012526L340.4538147087836,158.79092306698158L340.38496675625436,154.94198437643263L340.3545594870897,153.7316551260683L340.19839809439463,149.94033580194673L340.13503398633725,148.66055637086356L339.77917265099717,143.63142488888207L339.61618681003296,139.82301313473408L339.4923817886882,135.9914121246802L339.4553855834516,133.47948460546968L339.21838014162256,128.4008500279806L339.1587121199571,127.13708110311109L339.13041341953056,126.46207941982448L344.04233171392696,126.5458734315198L344.7781752130836,129.02359464722622L344.7362518618625,130.80113243339065L345.3095683612376,131.53890078113227L344.58927630349064,133.922092643038L345.73803539744245,133.6750556905531L346.6858051237233,134.45106419279637L348.07786155935435,134.18665164856793L348.9080879344649,135.25560485933465L351.90964079363255,134.64907306914483L353.0913639007149,135.36039126892092L352.9171353462525,139.27319244104956L354.8981440097677,138.75152476447147L358.00378694298706,137.3376561025002L360.2608092301635,137.16962215437024L361.5554890281734,138.8891147682648L363.80966681125847,138.03742072831892L364.94367615055637,136.88562301368302L366.75291276703064,136.46335413238194L369.7238469557298,136.2627282889057L372.04962785292565,135.2815023767098L374.02574336625736,133.54470126731758L375.3974663284597,131.5342139284403L376.19060944571265,131.45618277084668L377.32470571494184,130.09212758466447L381.5054606033167,126.33157314275104Z" id="mn_undefined" style="fill: rgb(242, 172, 147); stroke-width: 1px; stroke: rgb(255, 255, 255);"></path><path d="M130.29649747875823,62.587432413291936L140.22195176143612,62.51293389893817L140.06601248855705,45.66002088901132L139.9123435638495,29.063787612718443L141.35615917575143,30.266619067113425L145.45887758053766,31.718180319474413L148.01727424615953,31.412892524057497L149.46920833489116,30.317217106136013L151.61350609879534,30.312068873281532L157.35046710120184,34.094288406834494L159.54940309478116,34.32240261040988L159.0396463591028,36.67368842247197L160.76708553012804,43.59121033786778L160.74736190613748,45.021628818446516L162.3005319400683,51.71357747082675L163.67378494501946,53.58477979228428L167.79084994770915,72.16499021173331L167.28597016178009,73.48434513557459L167.71937239682802,75.99508191381392L166.64290048493132,77.38572440172811L167.19783046613537,78.68704060385971L167.4824619367914,81.39074378813984L169.7876488779987,83.25812697635502L170.4259071102966,84.54672103658959L171.73774611760163,84.87147918884602L173.61063427554453,86.55522036220555L175.47825215516175,86.64386048589131L176.47990040594013,87.8049855735162L180.50143515501776,88.2736874726861L181.57991026601593,88.6200107737377L182.88259652126425,87.83855744217999L183.0890703878308,96.73628327281949L183.1303824433156,104.29050770583763L183.42749862151828,116.86210521454905L166.74587392699777,117.1724270654895L137.32357976390156,117.56190888524816L137.12333784795453,102.42529012114028L129.43779883229905,102.46685588314722L129.3345472701,87.4350049228724L144.15748227392575,87.32106191124058L143.89210760041848,69.26410527494318L141.1825258916032,71.53942327830737L135.49069134518984,72.75472318156426L132.41509750041664,71.35395472957407L130.39098092592224,68.3430663232748L130.8530061026442,67.21097952938817L130.1533963975977,64.11572831144986Z" id="mn_undefined" style="fill: rgb(204, 204, 204); stroke-width: 1px; stroke: rgb(255, 255, 255);"></path><path d="M245.49848646314518,450.7366726115606L245.9095274470405,467.29338068891093L246.21018427129735,481.3562774283141L231.0060312859036,481.750067647155L230.89178356376277,477.9263925088949L215.58638616168895,478.25006202071927L214.93493932193283,476.31580656814685L216.3758224208337,474.77079541749436L216.78522878080832,473.31158429310835L218.7012673318316,472.22919729363L219.6956919170662,470.0732716382622L219.6311330613023,467.9830559339607L218.49388172317697,467.14380970011644L218.62221192514755,465.35576530212165L219.73440166267403,462.9289916720418L220.41029130777042,460.15784549706314L220.349191474343,458.9959014038168L221.72568661798215,457.4248655706642L221.87218866924604,456.2902830984772L222.88108057217266,454.71910898935766L222.82901872650092,452.849836950134L221.33877410375948,451.34933168209955Z" id="mn_undefined" style="stroke-width: 1px; stroke: rgb(255, 255, 255);"></path><path d="M62.56860012898859,444.9563206810185L70.98603347051956,445.04616325349707L84.97273872952692,445.09305584576305L84.95288024330073,452.74382522032465L85.74672353942965,452.7514254582361L85.80665046423451,462.7640842762471L85.83666167138709,483.33376193333197L75.38948537640555,483.2445125252925L62.322648605841394,483.2362381037533L62.4893714940857,460.1997410854424Z" id="mn_undefined" style="fill: rgb(99, 99, 99); stroke-width: 1px; stroke: rgb(255, 255, 255);"></path><path d="M84.97273872952692,445.09305584576305L115.49091041371464,445.09131542524756L115.51095610672179,452.7876934303267L116.10154460095492,452.7883378788756L116.1989028734112,462.84335641152575L116.31265515379152,483.38588359110736L86.76339847553211,483.34936858277615L85.83666167138709,483.33376193333197L85.80665046423451,462.7640842762471L85.74672353942965,452.7514254582361L84.95288024330073,452.74382522032465Z" id="mn_undefined" style="fill: rgb(150, 150, 150); stroke-width: 1px; stroke: rgb(255, 255, 255);"></path><path d="M199.07028894310955,413.3704620741323L214.20442734111475,413.1526890553291L214.50630269724724,420.786672152286L214.7957236066626,436.13862906643317L199.62384704250545,436.4058350821174L199.7071673714896,444.11785860851114L184.53099259427285,444.4093781515353L184.41576111248233,436.7003085424726L184.18004899787266,422.56665863362923L183.88645702241533,421.30408003954426L183.79879616036501,413.60002073318765L191.44951637755304,413.57065198669306Z" id="mn_undefined" style="fill: rgb(221, 221, 221); stroke-width: 1px; stroke: rgb(255, 255, 255);"></path><path d="M117.5847752328235,193.20627843182228L117.67022806628289,198.46243654703176L117.6687297550246,217.33955098440492L117.73731702639306,223.67076575326791L108.79726772601441,223.8068111186476L98.67732248931807,223.84398871032863L86.73617768616965,223.71923300223625L86.76960278923187,206.023006992531L86.72705862098528,193.34582427763735L111.05721915748283,193.28651512196166Z" id="mn_undefined" style="fill: rgb(99, 99, 99); stroke-width: 1px; stroke: rgb(255, 255, 255);"></path><path d="M67.93529194796838,102.20604144574463L76.89655718318281,102.1497655462963L91.14009633146061,102.30973798425566L100.11295259795425,102.56120894931883L114.15771882574137,102.66195208970112L114.26329169896536,106.36301415098842L114.18724686925745,113.92336359252386L114.26453497017579,117.75279388867693L114.75332305636067,117.74343326156304L114.78616084704345,134.51618262859074L102.07636152460643,134.62698470038367L84.35208629855306,134.66567635481397L81.78449837503157,134.51012694584688L76.61919944895331,134.57826159815477L75.40693705868087,134.38598094311874L61.142976904355606,134.39002180343186L49.60455109549222,134.38035581999566L32.95571180071151,134.27069084330333L22.935377101115776,134.13600862758994L22.76813034089814,133.03605637877536L23.859684293506902,131.19127459299534L23.418977937262213,130.34911652688515L23.991271190485705,126.63552831589368L24.826747123041002,124.88637252409171L24.404188087483362,122.9215152830975L23.59927092482195,122.05689738176261L24.290371249958113,119.43918362026488L22.617898717960543,117.5360199398483L23.704743066831938,116.80021328993735L22.53920913484326,115.62285470676761L24.07788164549315,113.82591224137832L23.3827813758857,112.8209959941496L23.693628768477836,111.47695495250082L23.069994422240143,110.61316241645181L24.25351995956001,109.69688697608944L23.51243636824711,108.87869849416438L22.952109261101597,103.04790634794972L22.354741202194944,101.85203291813741L37.154570951481475,102.0788998039443L61.51621514089734,102.24579908532905Z" id="mn_undefined" style="fill: rgb(99, 99, 99); stroke-width: 1px; stroke: rgb(255, 255, 255);"></path><path d="M193.7621340426572,513.2139351955934L201.45193074182794,513.0862610341787L201.5674788029878,522.0710386819651L201.97035959470077,543.7757856885651L181.37731379964166,544.1105305947099L163.47534210629044,544.307584657498L163.1137787762279,513.6514092551051Z" id="mn_undefined" style="fill: rgb(150, 150, 150); stroke-width: 1px; stroke: rgb(255, 255, 255);"></path><path d="M198.25596672075454,386.5827719150948L198.60070258770014,390.49967503001153L198.7671848636441,395.57686967094605L199.07028894310955,413.3704620741323L191.44951637755304,413.57065198669306L183.79879616036501,413.60002073318765L183.88645702241533,421.30408003954426L167.99092681969933,421.5496084038691L167.85838039528232,406.20822656246446L167.62755147887478,391.01046486087535L167.2617721154229,391.01726559220197L167.1798869292188,383.35895550152645L178.00674211606707,383.2535209499729L190.62587695496347,382.9667029733273L190.7020419788533,386.8161367634111Z" id="mn_undefined" style="fill: rgb(221, 221, 221); stroke-width: 1px; stroke: rgb(255, 255, 255);"></path><path d="M225.0416005769785,301.74395489115614L241.0224152532549,301.00156478735516L247.29366244761417,300.9341611198479L247.50928283525928,306.5011560079661L247.44572543782033,308.9990847572867L247.81420367813774,324.1457916375093L242.57668975027264,324.26351837410084L242.80443938568715,333.25363103432346L243.42057404964766,345.9746568919172L244.00470679586851,361.3967959470642L228.70094785806856,361.7010333605376L227.89774344485028,338.63936735680863L227.42610315712017,330.96975370546306L227.2313927986204,324.5762670985796L224.70700280613943,324.58358555685345L224.3519627573018,309.35980352080605L224.14778324580635,301.7731325773516Z" id="mn_undefined" style="fill: rgb(150, 150, 150); stroke-width: 1px; stroke: rgb(255, 255, 255);"></path><path d="M172.69313613694453,293.4782459115813L174.41835514794823,295.04639386650297L176.84410326375345,295.5391917693023L178.65453134205035,297.0243464349169L179.9665533604588,297.3845700851607L183.05952039795312,296.18484360217144L185.49685421986834,294.74659243434235L188.1318657286445,295.7446699431289L189.956379650032,297.7158889755274L191.18912153313875,297.8490183454337L191.76675587231398,299.3842334018841L191.76997189144282,300.15146952267696L188.6470624770664,303.69396607791805L188.59234527166757,305.1935368072168L190.37954562847162,308.2548249384681L189.92322892017552,310.0055381160546L196.25867542422552,309.86639873671766L203.90653642591784,309.8532980915402L224.3519627573018,309.35980352080605L224.70700280613943,324.58358555685345L227.2313927986204,324.5762670985796L227.42610315712017,330.96975370546306L227.89774344485028,338.63936735680863L215.26170664095707,338.7432396848103L191.75417190301386,339.37603278374127L194.73255898044857,342.553331069852L196.8223938503849,343.4498947084412L184.57096295837374,343.6191785022661L173.98143452008065,343.89650280470323L173.80393598849315,329.94047771515534L173.4818404434971,329.94599344627795L173.45764490578455,324.8203397107295L173.11850191174668,299.2678174235307L172.79762983327902,299.2733297680902Z" id="mn_undefined" style="fill: rgb(99, 99, 99); stroke-width: 1px; stroke: rgb(255, 255, 255);"></path><path d="M277.3102931134165,511.16371760504126L299.7888296703356,510.4065904872323L299.8396331041768,511.7097470871736L315.00812632697784,511.13067711407894L315.45004254117276,523.9476197021877L316.1029806143016,540.5753166511768L301.09586700275264,541.1526635823552L278.0221060456969,541.9444040103067L277.4823842941477,524.0170052456656L277.0550712165023,511.1716014744334Z" id="mn_undefined" style="fill: rgb(204, 204, 204); stroke-width: 1px; stroke: rgb(255, 255, 255);"></path><path d="M86.76339847553211,483.34936858277615L116.31265515379152,483.38588359110736L124.53967047276402,483.30731222273835L124.7182044020627,514.0076941908128L106.95106407498304,514.0728381544295L87.46775937664918,514.0043555963271L86.69156818322443,514.0066606254672Z" id="mn_undefined" style="fill: rgb(221, 221, 221); stroke-width: 1px; stroke: rgb(255, 255, 255);"></path><path d="M167.08481617149556,459.9738907559986L176.86938913562363,459.84780862618345L200.23775420472487,459.4108971761293L220.349191474343,458.9959014038168L220.41029130777042,460.15784549706314L219.73440166267403,462.9289916720418L218.62221192514755,465.35576530212165L218.49388172317697,467.14380970011644L219.6311330613023,467.9830559339607L219.6956919170662,470.0732716382622L218.7012673318316,472.22919729363L216.78522878080832,473.31158429310835L216.3758224208337,474.77079541749436L214.93493932193283,476.31580656814685L215.58638616168895,478.25006202071927L215.48485662191464,481.32480836114564L216.3247338234213,484.1194907485642L213.70463683686606,485.11710739215323L211.2381118272992,485.30669070310205L208.53481667556684,483.5987172044338L207.52891488304033,482.4761686871757L202.9420287948515,481.8819137061005L202.39214356586723,481.1158776837119L200.53466360469008,480.68123642583123L197.4869020357974,478.3191449394594L196.26969864966,478.27027169639996L195.39485289015118,477.24749937030583L192.95489322653447,476.49172934745684L190.30623118195464,475.60441327673107L187.857101148391,471.9738998783655L187.21543819770267,470.57500175196765L185.30807585271202,468.8672483136784L181.9534251940629,467.83916295199197L180.78580490529697,466.82637286830004L179.3974905567506,466.9561042017431L175.96895768304432,465.0830416495155L172.95260400193874,464.0824823438461L172.4967499376313,462.46623692534286L170.49478919590393,461.8793013808372L169.0694669434122,460.52460244961867L168.17242242349784,461.11614178458103Z" id="mn_undefined" style="fill: rgb(242, 97, 76); stroke-width: 1px; stroke: rgb(255, 255, 255);"></path><path d="M124.7182044020627,514.0076941908128L125.34579311716925,514.0034946625469L125.41713810309501,521.6851469359963L125.34845094731125,534.4939135500827L125.39813520048295,544.6693799937711L122.641493478574,544.7393026783911L96.87303019479795,544.8283526663467L87.39556136512478,544.798104575339L87.37281879223751,534.5461568216206L87.46775937664918,514.0043555963271L106.95106407498304,514.0728381544295Z" id="mn_undefined" style="fill: rgb(221, 221, 221); stroke-width: 1px; stroke: rgb(255, 255, 255);"></path><path d="M86.72705862098528,193.34582427763735L86.76960278923187,206.023006992531L86.73617768616965,223.71923300223625L79.07242024949561,223.7547548958787L64.54842292535366,223.70869972445098L40.275931479213334,223.5948586757504L41.33234925029888,223.11065438710375L41.35075909811412,221.66401704323835L40.36381561961448,219.59931573573795L40.889299432375005,218.42095588985558L40.307223168343,216.32401419210964L40.82638958437918,215.18371350016332L40.14720801606413,211.1871061617976L40.941993823227314,210.08734572230605L39.618650448889234,204.17670600400515L40.25605078036177,203.80690877100096L40.49765112987505,201.92213491311213L39.18587362070828,200.52726087119618L39.592930109654375,198.84779762973858L39.14552022680433,196.71794777818104L39.76795593889853,195.08644279721375L39.09875687209491,193.91308002905043L40.03300745541669,193.14906361580324L59.92111632624146,193.2755646906935L72.70400663537804,193.26069452491674Z" id="mn_undefined" style="fill: rgb(204, 204, 204); stroke-width: 1px; stroke: rgb(255, 255, 255);"></path><path d="M337.35629355467194,486.1802779457066L338.29730931481123,509.06314681297135L330.7654594711668,509.3778091448894L314.96815359464097,509.8837318638266L315.00812632697784,511.13067711407894L299.8396331041768,511.7097470871736L299.7888296703356,510.4065904872323L300.48133570798103,510.38153615188685L300.1561526579261,500.18543034507456L299.39581742280933,479.7887299505828L307.42078746343316,479.56366787450224L321.9885504207766,479.0864801553089L322.270706819789,486.6972691214496Z" id="mn_undefined" style="fill: rgb(242, 172, 147); stroke-width: 1px; stroke: rgb(255, 255, 255);"></path><path d="M141.35390961817484,261.48835671276584L141.4520955293931,269.168196656542L141.9300943416588,269.16498641325916L142.12216077735064,292.04839292299084L142.26896754824924,299.63048494098166L142.78684147524578,299.62995290727804L142.92091070010764,315.0362170794633L121.2453511936195,315.0738157983583L104.82627871456532,315.1876227575053L95.93337965480724,315.12711544968624L74.56496922585221,315.0808794422401L74.63120559573241,299.8535514356645L73.70913667141926,299.851237475561L73.73561487576174,269.2970882508139L80.31897582464379,269.3194762128842L80.2120669525301,261.68323070052566L108.31708614157327,261.86535281844135L124.91870822588112,261.76233130604305Z" id="mn_undefined" style="fill: rgb(99, 99, 99); stroke-width: 1px; stroke: rgb(255, 255, 255);"></path><path d="M61.142976904355606,134.39002180343186L75.40693705868087,134.38598094311874L76.61919944895331,134.57826159815477L81.78449837503157,134.51012694584688L84.35208629855306,134.66567635481397L102.07636152460643,134.62698470038367L114.78616084704345,134.51618262859074L114.94607119597364,147.79261436266188L115.50589078593197,147.78561704739786L115.56307545423743,155.3570320933518L108.00792239950742,155.24457592304088L107.99097940476705,152.7284684881488L92.71669455448853,152.7315990266411L77.49977481162524,152.86936099723425L62.144206070665476,152.74388385968268L62.15110375201676,147.68094451463958L61.065186225576284,147.67269443368696Z" id="mn_undefined" style="fill: rgb(99, 99, 99); stroke-width: 1px; stroke: rgb(255, 255, 255);"></path><path d="M269.7030291848346,285.1032227815472L284.99244427209635,284.6669378247234L315.99814033496847,283.63112930546913L316.3860047347918,293.5381594738992L317.09983204256486,313.70001789353046L315.5730025902265,314.2062490640851L314.6292796574101,315.1093666400725L313.85411418932915,318.92119083257967L312.49832547295915,319.1637021603483L310.1374311878286,318.1060997396953L308.2428743039416,319.1508585389506L307.6399898185604,321.2170354494551L306.52001783207226,323.0123942769924L303.2797796276307,322.17327799617306L301.8253042363895,323.6210484844719L301.79110609715764,325.0056291999135L296.54631486135474,326.7549923237216L294.31078990628896,329.2050651043296L292.3926264177962,330.3769531681114L290.6116901986312,333.3846891876674L290.5624000121386,334.7122333073885L289.0454306434696,336.4365543528911L289.5673736737598,337.82805840065794L288.32441767973415,340.38866348665806L288.07208951236737,342.01154028426345L286.58445574418425,343.82181341348496L284.71799065872193,345.1212464005889L266.2349454130487,345.6596574362152L265.528098156837,323.6851396328166L270.8880204977581,323.50110199359733L270.478269095427,307.96222351778397L270.1150361620313,295.2529897321915Z" id="mn_undefined" style="fill: rgb(150, 150, 150); stroke-width: 1px; stroke: rgb(255, 255, 255);"></path><path d="M62.322648605841394,483.2362381037533L75.38948537640555,483.2445125252925L85.83666167138709,483.33376193333197L86.76339847553211,483.34936858277615L86.69156818322443,514.0066606254672L76.10605653952575,514.0284314375731L62.14569429371883,513.8914430848208L62.21077204867758,498.37598237556585Z" id="mn_undefined" style="fill: rgb(99, 99, 99); stroke-width: 1px; stroke: rgb(255, 255, 255);"></path><path d="M22.935377101115776,134.13600862758994L32.95571180071151,134.27069084330333L49.60455109549222,134.38035581999566L61.142976904355606,134.39002180343186L61.065186225576284,147.67269443368696L62.15110375201676,147.68094451463958L62.144206070665476,152.74388385968268L62.110455225813396,162.87505588885597L69.7949969519425,162.92311252703166L69.83176307614971,170.50539513521107L82.49957712501833,170.59162615143669L100.46062418866347,170.49203746863668L100.47851158118341,162.87418990421565L108.06773756840117,162.8280686653875L108.00792239950742,155.24457592304088L115.56307545423743,155.3570320933518L115.78204804619153,167.96335206265576L115.89027421605337,178.0603720133222L117.38390239856156,178.05028883055138L117.42739327273188,191.9440695206431L117.5847752328235,193.20627843182228L111.05721915748283,193.28651512196166L86.72705862098528,193.34582427763735L72.70400663537804,193.26069452491674L59.92111632624146,193.2755646906935L40.03300745541669,193.14906361580324L39.86540478046414,191.8738430071826L38.90552986971946,190.50465945518954L40.021609062006824,187.24358682679167L39.4506847630265,186.58623138641224L40.01222940582658,185.0307595591421L39.75688552050057,183.76178612940566L38.295420068351774,182.50425762921395L37.144241085448385,176.410717561625L36.276716300152735,175.2273731150185L35.093836272497796,169.80141053681882L33.31904776754925,168.10910946941522L33.73703650553845,167.45530416894235L32.59338716767841,165.77341364979884L32.09714659405108,163.49809264466649L31.016945613915567,160.64810522181824L30.074288144538578,160.42868002918794L29.875508272796843,158.4725467299968L30.326469081275455,156.31427070032896L28.166734159335746,153.97947913009057L27.774007057963082,152.4664090880774L28.269992600527843,150.0275668107097L27.721330621979426,149.6028866154279L27.27119503347138,145.29229989983742L25.664738271190856,143.0354464989473L25.467116956738877,141.0261295773371L23.914246247301932,137.64119659083144L22.914902435073728,136.67739796406158Z" id="mn_undefined" style="fill: rgb(99, 99, 99); stroke-width: 1px; stroke: rgb(255, 255, 255);"></path><path d="M143.57520001161657,345.5694245522236L143.70211422069775,360.84876899619394L144.21404837830744,360.84573703014985L144.3313524758085,376.00853138684533L136.72886582228404,376.0580887832489L121.59617187479388,376.23447086018905L106.3503251447438,376.2583464108543L106.29974934235295,361.0296793648522L105.64564248294634,361.03303920532517L105.5903108498425,345.70894664054276L120.84207017119678,345.7309637641274Z" id="mn_undefined" style="fill: rgb(242, 172, 147); stroke-width: 1px; stroke: rgb(255, 255, 255);"></path><path d="M275.37886336824636,398.7603779541205L277.60729622357917,398.704415655935L278.27149215719663,419.17987883045L276.074974331416,419.26788428421787L274.6470241625745,418.0573273666173L273.9712096343719,416.79346918640795L269.19584453183506,416.9472840807225L267.7668503724694,419.27178448101085L266.22036909202416,419.77602243065667L264.6863824797587,417.6545655146033L264.6105083560693,414.5473303368717L264.2198204638137,414.1449527812174L263.97185825084875,406.85787952968985L262.811634113683,406.9052982686635L262.51914123094394,399.0914247499077Z" id="mn_undefined" style="fill: rgb(150, 150, 150); stroke-width: 1px; stroke: rgb(255, 255, 255);"></path><path d="M108.00792239950742,155.24457592304088L108.06773756840117,162.8280686653875L100.47851158118341,162.87418990421565L100.46062418866347,170.49203746863668L82.49957712501833,170.59162615143669L69.83176307614971,170.50539513521107L69.7949969519425,162.92311252703166L62.110455225813396,162.87505588885597L62.144206070665476,152.74388385968268L77.49977481162524,152.86936099723425L92.71669455448853,152.7315990266411L107.99097940476705,152.7284684881488Z" id="mn_undefined" style="fill: rgb(99, 99, 99); stroke-width: 1px; stroke: rgb(255, 255, 255);"></path><path d="M161.7198770338688,456.3427483170167L161.9049111020238,475.363081533686L146.76878328819566,475.5668353084734L146.77100855409645,483.20903983241715L124.53967047276402,483.30731222273835L116.31265515379152,483.38588359110736L116.1989028734112,462.84335641152575L116.10154460095492,452.7883378788756L130.7534782162071,452.7820545895647L130.65802493520746,438.96169780599666L133.53752966129053,439.5332356643926L133.7061106442163,441.0080374651234L135.04576322195317,442.2126669425297L136.35393861494333,442.38652612249325L138.15491447222598,441.9117823321576L138.95207958167362,443.04675764742797L142.3232561473102,445.87872160902L146.78767390725554,448.74937284505813L147.07362466429922,449.97527686930516L148.96964758678143,449.956436691592L152.3716905512734,452.5237217468266L153.91411185905247,452.2096264878396L156.17842658333527,453.6771115192805L158.67067492495107,454.813756027856L159.73471759223543,454.3767577760568L160.89100399969294,454.8656039880807Z" id="mn_undefined" style="fill: rgb(204, 204, 204); stroke-width: 1px; stroke: rgb(255, 255, 255);"></path><path d="M137.49401450224673,421.9313689035507L150.22955729548096,421.8036822598242L167.99092681969933,421.5496084038691L183.88645702241533,421.30408003954426L184.18004899787266,422.56665863362923L184.41576111248233,436.7003085424726L176.2059730162918,436.8905007210201L176.44405123747305,452.243717855888L176.7546648855353,452.2370793911796L176.86938913562363,459.84780862618345L167.08481617149556,459.9738907559986L165.216754976392,458.6420119643167L165.11590270645206,457.76867170600144L161.7198770338688,456.3427483170167L160.89100399969294,454.8656039880807L159.73471759223543,454.3767577760568L158.67067492495107,454.813756027856L156.17842658333527,453.6771115192805L153.91411185905247,452.2096264878396L152.3716905512734,452.5237217468266L148.96964758678143,449.956436691592L147.07362466429922,449.97527686930516L146.78767390725554,448.74937284505813L142.3232561473102,445.87872160902L138.95207958167362,443.04675764742797L138.15491447222598,441.9117823321576L136.35393861494333,442.38652612249325L135.04576322195317,442.2126669425297L133.7061106442163,441.0080374651234L133.53752966129053,439.5332356643926L130.65802493520746,438.96169780599666L128.39811097197875,437.68007570010377L128.20397038265182,436.62016585971196L125.60839249770007,435.0430275207091L124.56456870854912,435.28683751228846L122.99960711727562,434.1971919075031L122.89429589810112,422.08726439302836Z" id="mn_undefined" style="fill: rgb(99, 99, 99); stroke-width: 1px; stroke: rgb(255, 255, 255);"></path><path d="M245.49848646314518,450.7366726115606L260.6698707646628,450.286916353813L260.8266685785491,456.6311318230896L269.6408721434459,456.4422468017683L275.9886320991001,456.189098340446L276.62945009668476,480.439764479102L276.3300359382276,480.4488701323071L253.68541448756218,481.1360048947572L246.21018427129735,481.3562774283141L245.9095274470405,467.29338068891093Z" id="mn_undefined" style="fill: rgb(242, 172, 147); stroke-width: 1px; stroke: rgb(255, 255, 255);"></path><path d="M62.14569429371883,513.8914430848208L76.10605653952575,514.0284314375731L86.69156818322443,514.0066606254672L87.46775937664918,514.0043555963271L87.37281879223751,534.5461568216206L87.39556136512478,544.798104575339L62.012248967896525,544.7240136895102Z" id="mn_undefined" style="fill: rgb(204, 204, 204); stroke-width: 1px; stroke: rgb(255, 255, 255);"></path><path d="M67.08816555559964,62.57830149554684L85.39663595409935,62.6357552309928L101.37030413739681,62.65323366714074L130.29649747875823,62.587432413291936L130.1533963975977,64.11572831144986L130.8530061026442,67.21097952938817L130.39098092592224,68.3430663232748L132.41509750041664,71.35395472957407L135.49069134518984,72.75472318156426L141.1825258916032,71.53942327830737L143.89210760041848,69.26410527494318L144.15748227392575,87.32106191124058L129.3345472701,87.4350049228724L129.43779883229905,102.46685588314722L114.15771882574137,102.66195208970112L100.11295259795425,102.56120894931883L91.14009633146061,102.30973798425566L76.89655718318281,102.1497655462963L67.93529194796838,102.20604144574463L67.89784928576601,97.14588264851409L68.04753720182612,87.16532053591982L67.01399537580525,87.16151968242411L67.0801512893036,80.80245292300515Z" id="mn_undefined" style="fill: rgb(204, 204, 204); stroke-width: 1px; stroke: rgb(255, 255, 255);"></path><path d="M261.7637030251857,92.36604230368812L267.8754323076689,92.51387492175309L269.899510073743,91.88286064765634L269.9482172542847,93.79386908398283L271.15331005126916,93.87839776728197L283.16826376401167,99.35655541208962L287.2956023136501,98.61683032901965L288.6563038612528,98.8874810030502L289.32465562330174,101.44469673786625L288.6592512798873,102.65065676547147L285.0508926886202,103.16807406330372L284.3227707584542,105.96717873510897L285.827034288012,107.59334936372215L287.72686305405074,108.15669841604358L292.40521149539944,107.63106599604816L294.7132913602273,106.92545495542072L296.4480674332376,106.84089336715806L298.4274614421517,109.32473750571808L299.5622916262089,109.67764305131823L299.6063424610776,110.80641283638033L298.51609181952904,113.39033753760759L298.97713029954116,115.09964822458187L301.36624038837726,119.09862633463854L302.3555718024026,119.94009325404204L304.3331296839441,123.8662729891621L304.9730427544827,125.86653430709885L308.4841988302563,124.46297824639987L310.50787769780817,124.04758430628135L310.86513158027594,122.97429559895318L309.85969359074306,122.26936763521644L309.1167085235221,120.27268368087971L309.67463888828706,115.50049441142255L311.1830136478152,114.38686568290723L314.5060342945936,115.06264222661412L316.14616868049546,114.46058745692244L317.08001844360416,113.42070898235943L318.18410694862916,114.01062462000209L321.30235842168696,114.0158791150352L323.3872275169381,113.50568131635282L323.9639395400609,115.62461930223071L324.94929229329307,116.3746412287037L326.7749520999955,116.69874396514933L326.1023779794624,118.78844867104999L326.60052710081976,121.55969089009432L328.19569814903974,123.01676236126605L329.44771958725727,122.46385271360487L329.56319574862147,124.24804810471869L333.39763298548655,123.6610537430688L334.9766871670278,125.2314861802688L335.21235338412083,126.28814842001702L338.0826202301185,125.73814549120561L339.1587121199571,127.13708110311109L339.21838014162256,128.4008500279806L339.4553855834516,133.47948460546968L339.4923817886882,135.9914121246802L339.61618681003296,139.82301313473408L339.77917265099717,143.63142488888207L340.13503398633725,148.66055637086356L340.19839809439463,149.94033580194673L340.3545594870897,153.7316551260683L340.38496675625436,154.94198437643263L340.4538147087836,158.79092306698158L340.6280750850667,162.30532621012526L340.64251933158664,162.56165136138407L340.70003809971365,163.6633635193498L340.70868204123155,163.8170408349897L340.7834861644784,165.07225314948937L340.8199678196851,166.08364253955415L341.0077399255678,168.8011029364243L341.01293722251035,168.84759482849358L341.1529313050548,170.06678617846956L341.3396436012976,172.64216559010038L341.53223962028176,175.082276228924L341.6151884905874,175.98800383216167L341.7711776612985,177.6399327256081L341.8483845556679,178.56194226201615L341.93294837269485,179.8238877030317L341.97430768467126,180.16737854670464L342.1680446639565,182.34785732974524L342.2844319457771,183.94597824208995L342.29239004454917,184.8967258874386L342.33125058155133,186.17385684927604L342.3716692071351,187.3488091889003L342.4096698822893,188.70080363882016L342.5160694354398,191.1580872723489L342.63784452679477,193.78810619539763L342.73769025704536,196.28697544452098L342.70533883361617,198.83275439630734L342.8884085536512,202.65895428663998L343.0430101585653,206.43816683653677L343.09435736947836,207.70827556864106L343.3079410058498,212.78833687832048L343.58145141035277,219.05884491289953L343.7022112189649,221.60771223507209L343.6225582282073,222.86440060197447L343.7343495391744,225.37544564985183L343.8546331925059,227.90540870212453L343.9122402703915,229.16465624353077L344.07512669101527,232.98250218964768L344.23443713235685,236.66081356094264L342.8821908366585,238.09775273970126L341.4363075520564,238.06961573526178L340.64204803695503,239.10005171701278L339.1418500262357,239.85718473964016L337.369626440441,241.7775424292463L335.1776930647663,243.29460215824247L332.64504169912044,245.68847805636688L329.5255758255692,247.91588962649348L328.594323483305,249.17851377529814L327.0405263381996,250.19193060831049L326.92675469846023,251.54042249915938L330.65128531306715,257.46848524754296L327.1511000421262,254.08082390874642L325.51601887942064,254.2004690621552L324.2615278106653,255.0492503295609L323.83774648444404,257.13518154751864L321.24494208086077,257.09949103818553L320.29399869213626,258.4524842858059L322.1027402493672,259.4582664219306L320.4381834542672,261.7606045301204L320.0724426255233,263.07282515127235L316.82534185554954,263.10488570895586L315.1983357878292,262.09957241711436L314.66150887943485,262.09461270931797L314.2863440565487,253.28407551558166L293.9229893623419,253.80038491631103L291.3885143151279,253.7003319297196L283.6602130629219,254.23252612088163L268.3688205161711,254.67837875518853L267.9997225667451,231.92846614152677L267.760850688218,224.6881730852515L267.1460658122312,224.70608405955136L267.02395808813276,218.40274368728842L266.67227271581964,208.26054850885384L266.5551825203843,201.7887432102748L266.2488253357931,200.53777160876461L266.06105338585337,194.26665532761808L266.16786556240163,190.54896843026427L266.02750896973464,181.61497810177207L265.902898825927,180.3408376432435L265.7980987630056,171.3233725890259L264.5601414489795,171.35506209975256L264.195026592478,162.48208501429144L264.17931687268424,156.38336027058722L263.94333971064646,148.85001017816376L263.5228372950671,148.85942541308032L263.2125125153496,141.08703194913915L262.77783894440375,141.1111724898219L262.24633507825916,125.8864290171141L262.1063702457811,110.90000345214594Z" id="mn_undefined" style="fill: rgb(204, 204, 204); stroke-width: 1px; stroke: rgb(255, 255, 255);"></path><path d="M257.0465465072648,428.6262732979535L257.32548528235435,435.086247053599L257.93932591991376,435.0699345272815L258.1260340943628,442.72456731092916L260.65466004250317,442.6361824411347L260.6698707646628,450.286916353813L245.49848646314518,450.7366726115606L221.33877410375948,451.34933168209955L222.51367455757736,449.34637572692736L222.0454335754705,447.2795530356725L224.313142738157,445.7805197435846L224.73125629311164,444.7537579451964L225.90752831579772,444.600611971543L227.0975122301224,443.34490674221115L229.1180874422654,443.41717641058176L230.04575414907225,442.5965396479919L231.88797615698638,442.05956711206363L233.31081262570456,441.01364542712236L236.18826899649906,437.60427114141567L237.89045405880336,437.76326212070444L239.24354033602572,436.40972074609044L238.3893170649011,433.74292139067256L239.26227306589755,431.2628206115619L241.36864140698827,429.791078742609L241.53305440090037,428.7374867605686L243.83883824757265,427.7607443316442L245.14337158562677,427.7473624983186L249.90104064908854,427.5677206065279L250.23224390858604,426.9156516208818L253.59312625475508,428.189673816747L253.85660614097242,429.1604176966116Z" id="mn_undefined" style="fill: rgb(242, 172, 147); stroke-width: 1px; stroke: rgb(255, 255, 255);"></path><path d="M228.70094785806856,361.7010333605376L244.00470679586851,361.3967959470642L244.37505202736662,374.04237184195335L244.61920579217133,388.8868038716564L244.07740756815696,388.8279988228969L242.06301793259496,387.1657585336343L241.42368567667666,384.3354544476656L240.383272175176,384.91765364914136L237.4040612697214,384.62942065354855L235.0798537961369,384.7904916535099L233.93763751209212,384.0501332859362L232.53451962322458,384.6389733802307L231.30148115454216,384.44355275340786L229.61092788696436,384.9627891630016L226.44060647475789,383.5759968583211L224.3820716452459,381.4651372436565L222.680841681968,381.2903676702699L221.1481551075707,379.2432126573699L218.62676305891696,377.2049489972842L216.79403462463648,377.88053800957323L215.0388170514326,376.0670982052434L212.44588600321623,375.4769877536146L211.2733646602088,374.1779854676047L205.3988370275177,368.1004623809581L205.40275589687508,365.96674762390967L204.6856922867674,364.96583708717344L204.6947615603388,362.2625689528586L212.1923604004159,362.1201501709138L222.32856442909656,361.79376093979363Z" id="mn_undefined" style="fill: rgb(221, 221, 221); stroke-width: 1px; stroke: rgb(255, 255, 255);"></path><path d="M184.41576111248233,436.7003085424726L184.53099259427285,444.4093781515353L199.7071673714896,444.11785860851114L199.62384704250545,436.4058350821174L214.7957236066626,436.13862906643317L222.38684773347637,435.9942862438661L222.462358357683,439.8479603691726L229.99496238292005,439.6612913315871L230.04575414907225,442.5965396479919L229.1180874422654,443.41717641058176L227.0975122301224,443.34490674221115L225.90752831579772,444.600611971543L224.73125629311164,444.7537579451964L224.313142738157,445.7805197435846L222.0454335754705,447.2795530356725L222.51367455757736,449.34637572692736L221.33877410375948,451.34933168209955L222.82901872650092,452.849836950134L222.88108057217266,454.71910898935766L221.87218866924604,456.2902830984772L221.72568661798215,457.4248655706642L220.349191474343,458.9959014038168L200.23775420472487,459.4108971761293L176.86938913562363,459.84780862618345L176.7546648855353,452.2370793911796L176.44405123747305,452.243717855888L176.2059730162918,436.8905007210201Z" id="mn_undefined" style="fill: rgb(204, 204, 204); stroke-width: 1px; stroke: rgb(255, 255, 255);"></path><path d="M173.98143452008065,343.89650280470323L184.57096295837374,343.6191785022661L196.8223938503849,343.4498947084412L197.62246289628465,346.28969536542036L199.05178252727202,347.3564756229398L200.30571301750388,347.65398858290837L199.97693466799558,349.2427787773472L200.7568441030596,349.8943163551362L201.6768650815896,352.3713165010163L201.19192841051608,354.55915607050883L201.25430556239786,357.0292950261505L202.04545892676396,358.7712816481021L203.31160623616495,359.60052936017155L203.69084662309652,361.10181851635843L204.6947615603388,362.2625689528586L204.6856922867674,364.96583708717344L205.40275589687508,365.96674762390967L205.3988370275177,368.1004623809581L211.2733646602088,374.1779854676047L209.93014117111255,375.8238639355386L208.91393009257035,377.9479855612117L209.22091346490993,379.05713787507875L207.19180020645314,382.45418578169847L204.36194645747793,384.9443925508276L203.5084532579407,384.83485548358476L202.7620279071646,383.4812339078676L198.46314112812846,384.67375263600525L198.25596672075454,386.5827719150948L190.7020419788533,386.8161367634111L190.62587695496347,382.9667029733273L178.00674211606707,383.2535209499729L167.1798869292188,383.35895550152645L167.09153959893763,375.73272895063974L151.9207554770235,375.9612869072398L144.3313524758085,376.00853138684533L144.21404837830744,360.84573703014985L143.70211422069775,360.84876899619394L143.57520001161657,345.5694245522236L143.55734436173574,344.29825923129874L153.68882694191882,344.1198645390664Z" id="mn_undefined" style="fill: rgb(204, 204, 204); stroke-width: 1px; stroke: rgb(255, 255, 255);"></path><path d="M276.3300359382276,480.4488701323071L277.3102931134165,511.16371760504126L277.0550712165023,511.1716014744334L254.51455879751842,511.8576371537706L253.68541448756218,481.1360048947572Z" id="mn_undefined" style="fill: rgb(242, 134, 112); stroke-width: 1px; stroke: rgb(255, 255, 255);"></path><path d="M105.5903108498425,345.70894664054276L105.64564248294634,361.03303920532517L106.29974934235295,361.0296793648522L106.3503251447438,376.2583464108543L83.54933747781969,376.29636425984245L75.88263956036607,376.22131602509216L75.91263750580964,361.0233551199485L75.19894135784455,361.0265639663162L75.17619991579197,345.7112576428208L90.41067360054885,345.76690233986255Z" id="mn_undefined" style="fill: rgb(242, 97, 76); stroke-width: 1px; stroke: rgb(255, 255, 255);"></path><path d="M106.3503251447438,376.2583464108543L121.59617187479388,376.23447086018905L136.72886582228404,376.0580887832489L136.84247450398428,391.3644191467556L137.37522429231421,391.3641091837003L137.4384478658952,398.952821517194L131.07927823689775,398.970221552509L115.93460896456028,399.1916834002318L88.49526099608187,399.16314743856583L87.28240105213843,398.7805618455991L84.3468417499969,396.9972978891228L84.35198093848408,391.43357780096085L83.44827364094448,391.4326991916787L83.46640551050267,378.71680899854346L83.54933747781969,376.29636425984245Z" id="mn_undefined" style="fill: rgb(242, 134, 112); stroke-width: 1px; stroke: rgb(255, 255, 255);"></path><path d="M167.90175953121457,291.784392517523L168.48131521173826,293.2417949125461L171.98579403622063,293.15574431365985L172.69313613694453,293.4782459115813L172.79762983327902,299.2733297680902L173.11850191174668,299.2678174235307L173.45764490578455,324.8203397107295L173.4818404434971,329.94599344627795L173.80393598849315,329.94047771515534L173.98143452008065,343.89650280470323L153.68882694191882,344.1198645390664L143.55734436173574,344.29825923129874L143.43682479495675,335.4007171292674L143.48434289544542,330.29573587722643L143.0319147691095,330.3000620786743L142.92091070010764,315.0362170794633L142.78684147524578,299.62995290727804L142.26896754824924,299.63048494098166L142.12216077735064,292.04839292299084Z" id="mn_undefined" style="fill: rgb(150, 150, 150); stroke-width: 1px; stroke: rgb(255, 255, 255);"></path><path d="M74.49299102307826,322.71100443395744L74.47246950350288,330.35847976211926L75.20846407072601,330.3596632442791L75.17619991579197,345.7112576428208L75.19894135784455,361.0265639663162L61.900747766823855,360.991970473679L39.3563242067279,360.77374519237446L37.99982365519294,359.0147077391166L39.207212906604354,355.37415732012096L44.11373570379635,351.79190840359706L44.671353797788875,350.9143200256781L49.46462584082347,348.00209428654716L50.728378141942486,346.73937623002985L51.54743949243976,344.52610062322856L54.172660285242856,341.05279249362957L55.01230102258157,340.3357200362352L55.54995510126326,338.31237851279593L56.411282755371644,329.31138871302664L55.86888184715442,327.7330560264104L55.50997623335463,322.59218697567394Z" id="mn_undefined" style="fill: rgb(150, 150, 150); stroke-width: 1px; stroke: rgb(255, 255, 255);"></path><path d="M325.9088790774093,455.9791053798517L327.2660958682354,457.14602018879805L330.9802138246591,458.15969219166936L333.42536989941004,458.5340093576797L334.1268562135711,459.1465685684416L337.8878475209484,460.1557757029377L338.8981631346271,461.2293546285782L343.8982236103513,463.57192262870876L345.9760982578632,465.6276445398612L346.95122926049277,467.99207724457665L346.6623682980052,469.9226963680708L348.1652444912676,470.81331841124984L348.8663929279155,472.8270631870855L348.5704018826046,474.37257594931907L349.8196751186059,477.3704824317124L350.8873684886158,477.9768712414375L337.0331114250656,478.57713687684145L337.35629355467194,486.1802779457066L322.270706819789,486.6972691214496L321.9885504207766,479.0864801553089L307.42078746343316,479.56366787450224L306.8765217060438,464.2618333718219L314.4071253476401,464.01028281499157L314.1336608238924,456.3280285806368Z" id="mn_undefined" style="fill: rgb(204, 204, 204); stroke-width: 1px; stroke: rgb(255, 255, 255);"></path><path d="M164.044287093575,253.684506774468L164.30918337339466,268.90224237908706L164.6399504413368,268.8989508696004L164.88834713221337,280.3876295788996L165.00003919812826,289.59150627099325L166.23173081583667,290.58884048251366L168.09522530769013,290.6758129191753L167.90175953121457,291.784392517523L142.12216077735064,292.04839292299084L141.9300943416588,269.16498641325916L141.4520955293931,269.168196656542L141.35390961817484,261.48835671276584L141.33437783412433,253.86864495880127L148.90729871826449,253.7207905746527Z" id="mn_undefined" style="fill: rgb(99, 99, 99); stroke-width: 1px; stroke: rgb(255, 255, 255);"></path><path d="M246.21018427129735,481.3562774283141L253.68541448756218,481.1360048947572L254.51455879751842,511.8576371537706L239.28372734134706,512.2630828916458L231.72813005075824,512.451923538888L231.28945511614916,495.78835471981256L231.0060312859036,481.750067647155Z" id="mn_undefined" style="fill: rgb(242, 134, 112); stroke-width: 1px; stroke: rgb(255, 255, 255);"></path><path d="M291.8858763678656,383.04403765759935L290.99854280448494,384.6039046839769L291.60044001622975,386.0938859205189L291.13458622613274,386.95962047246803L291.72976160605236,389.8745246656704L291.0165847416458,391.11367209724176L290.89529563096323,392.82570004794206L291.7689599110435,393.7379066227022L291.9365196511062,396.3842889572411L292.48091768919943,399.5649154901748L289.751115041744,402.10177004114166L289.01676313344205,403.4608430996659L290.01172678521345,405.35487139724864L291.68538684078146,407.18417631912644L291.17185822358823,409.02679198525493L291.3701557006784,411.5944954935926L292.34065335862056,413.004562972611L292.6419096231231,414.6211313853314L292.1768702967173,417.23076580587394L291.33622369341396,418.8328629538064L292.043663710484,420.3132144109354L292.0215152277294,423.1204659804239L290.92736105942095,427.4549184398579L289.74846215139024,429.6046141708707L289.9943836627466,431.5913125088691L288.5797092209961,431.20708506551955L287.0229937002468,431.61198451613063L285.19376765043467,429.35357069810834L283.0831184225632,429.2770137792709L281.95872402140105,428.72414254932346L280.4917945055983,430.03361860157383L278.8290215996327,429.4450317808446L276.6585429201906,429.42630410850734L276.2310630336709,427.7080816862458L277.18621458020345,425.7924103268765L276.7032663261982,423.9044365405589L276.84193658465836,422.37587035596744L276.074974331416,419.26788428421787L278.27149215719663,419.17987883045L277.60729622357917,398.704415655935L275.37886336824636,398.7603779541205L274.951210023678,383.53667719212945Z" id="mn_undefined" style="fill: rgb(150, 150, 150); stroke-width: 1px; stroke: rgb(255, 255, 255);"></path><path d="M193.37835092617541,490.2186796700162L193.7621340426572,513.2139351955934L163.1137787762279,513.6514092551051L162.80196270884295,513.6569891324962L162.62280909805247,497.10678818894075L162.4995862432245,490.7284196028768L170.13286730011552,490.5522596023975Z" id="mn_undefined" style="fill: rgb(242, 172, 147); stroke-width: 1px; stroke: rgb(255, 255, 255);"></path><path d="M43.241938644866956,269.16920732812696L60.05596633904278,269.25849136768284L73.73561487576174,269.2970882508139L73.70913667141926,299.851237475561L74.63120559573241,299.8535514356645L74.56496922585221,315.0808794422401L74.49299102307826,322.71100443395744L55.50997623335463,322.59218697567394L56.74140732251004,318.87148862886943L56.69904611994414,315.5500897574302L55.35406609498947,311.2603047109883L55.18526417133626,306.8764895980348L54.620124636692445,305.74851837040114L54.203218710657914,301.5157211067899L54.52419255072445,300.50335682411287L54.170398084713746,295.4688675178181L52.49213939860489,293.4610435204054L50.26718638547938,291.6365452787695L49.42622842508532,288.79319725463574L47.919727777241505,287.76249636117745L47.16986503863235,286.2144142584534L47.43917914886998,283.6742347431359L46.27502291969631,282.4699859901384L45.86542140949364,280.4553348626955L46.21139871973569,279.5344999815711L45.31291487176724,277.08465787182695L45.66525780631586,274.7160933007226L44.85726114574726,272.2269060286044L43.98239804929566,272.09506620014463Z" id="mn_undefined" style="fill: rgb(221, 221, 221); stroke-width: 1px; stroke: rgb(255, 255, 255);"></path><path d="M337.35629355467194,486.1802779457066L337.0331114250656,478.57713687684145L350.8873684886158,477.9768712414375L352.79211272251075,479.2026732919544L353.59184108186815,480.4136768945782L356.34592297336684,481.76588655909154L357.824428548525,482.82596037441044L359.1572750888047,482.9327209996495L360.4663900367912,483.9704214825242L360.7275785546828,485.4221453706259L362.38518571822226,485.92152872663473L364.7279325275463,488.82268627710346L367.406755506759,490.2917570542445L368.8898439600971,491.8061041873366L373.6738280487171,492.32370962577033L375.3709275553453,493.2002527046875L377.9355350382375,493.6638584343841L380.2702826780728,496.87108980355833L381.585321406812,497.66339106316127L382.9942209622061,499.304734262304L383.57676751509314,500.8949572991569L385.97564650200326,503.25762427043264L386.6542355715571,505.0497040096334L388.4514111027028,506.79070488381694L360.3023985323777,508.14644406294474L338.29730931481123,509.06314681297135Z" id="mn_undefined" style="fill: rgb(99, 99, 99); stroke-width: 1px; stroke: rgb(255, 255, 255);"></path><path d="M211.2733646602088,374.1779854676047L212.44588600321623,375.4769877536146L215.0388170514326,376.0670982052434L216.79403462463648,377.88053800957323L218.62676305891696,377.2049489972842L221.1481551075707,379.2432126573699L222.680841681968,381.2903676702699L224.3820716452459,381.4651372436565L226.44060647475789,383.5759968583211L229.61092788696436,384.9627891630016L231.30148115454216,384.44355275340786L232.53451962322458,384.6389733802307L233.93763751209212,384.0501332859362L235.0798537961369,384.7904916535099L237.4040612697214,384.62942065354855L240.383272175176,384.91765364914136L241.42368567667666,384.3354544476656L242.06301793259496,387.1657585336343L244.07740756815696,388.8279988228969L243.8687620163708,390.650929119116L242.7788539089982,390.12978039675636L241.14417032433886,391.41352751123986L238.24485702428302,392.2759181769229L236.81101091421112,392.3197920905359L235.67163309842908,393.73389156601525L236.9886110572001,396.15964676735894L235.62455428398914,397.2719094727363L234.20979298858822,397.6033684083327L232.05757961524853,400.7816336280407L231.0083854069037,403.7577941834993L229.85381639185255,403.84100266877886L229.27641405427113,405.61947024652L229.41147173341443,412.8856336831832L214.20442734111475,413.1526890553291L199.07028894310955,413.3704620741323L198.7671848636441,395.57686967094605L198.60070258770014,390.49967503001153L198.25596672075454,386.5827719150948L198.46314112812846,384.67375263600525L202.7620279071646,383.4812339078676L203.5084532579407,384.83485548358476L204.36194645747793,384.9443925508276L207.19180020645314,382.45418578169847L209.22091346490993,379.05713787507875L208.91393009257035,377.9479855612117L209.93014117111255,375.8238639355386Z" id="mn_undefined" style="fill: rgb(204, 204, 204); stroke-width: 1px; stroke: rgb(255, 255, 255);"></path><path d="M107.13762352755764,418.17201532220497L108.17753187920006,419.42000114866505L108.2881629340735,420.80201240022234L111.14148192924799,420.9695593279257L113.08668766569384,423.5825734621658L114.74192512706941,424.86216530638467L114.83284359724199,425.7061281450683L117.76311925249955,427.0856715252012L118.1404258601962,428.0429193797836L119.67729384538251,429.0447987729517L122.00378358598206,431.2367438160254L120.36888881909267,431.5483944608691L122.56802026860221,433.24308197958953L122.99960711727562,434.1971919075031L124.56456870854912,435.28683751228846L125.60839249770007,435.0430275207091L128.20397038265182,436.62016585971196L128.39811097197875,437.68007570010377L130.65802493520746,438.96169780599666L130.7534782162071,452.7820545895647L116.10154460095492,452.7883378788756L115.51095610672179,452.7876934303267L115.49091041371464,445.09131542524756L84.97273872952692,445.09305584576305L70.98603347051956,445.04616325349707L62.56860012898859,444.9563206810185L62.641026880401924,429.6222774343928L77.35218549272693,429.65936505484797L84.9584343816421,429.7375336410323L100.18177344844611,429.66961461176516L100.25517326123475,422.0695967717579L107.11818698646806,422.08325279908195Z" id="mn_undefined" style="fill: rgb(221, 221, 221); stroke-width: 1px; stroke: rgb(255, 255, 255);"></path></g><path id="state-borders"></path></g></svg>